<svg xmlns="http://www.w3.org/2000/svg" viewBox="0 0 100 100">
  <style>
    .snowflake { fill: #5398DC; }
  </style>
  <!-- Snowflake icon -->
  <path class="snowflake" d="M50 10 L50 90 M10 50 L90 50 M25 25 L75 75 M75 25 L25 75 M50 10 L45 20 M50 10 L55 20 M50 90 L45 80 M50 90 L55 80 M10 50 L20 45 M10 50 L20 55 M90 50 L80 45 M90 50 L80 55 M25 25 L30 30 M25 25 L30 20 M75 75 L70 70 M75 75 L80 70 M75 25 L70 30 M75 25 L70 20 M25 75 L30 70 M25 75 L20 70" stroke="#5398DC" stroke-width="4" stroke-linecap="round"/>
  <circle cx="50" cy="50" r="6" class="snowflake"/>
</svg>

